<?xml version="1.0" encoding="UTF-8"?>
<svg xmlns="http://www.w3.org/2000/svg" viewBox="120 1120 1310 900" fill-rule="nonzero" clip-rule="evenodd" stroke-linecap="round" stroke-linejoin="round">
  <g opacity="1">

<g opacity="1" xmlns="http://www.w3.org/2000/svg">
<path d="M1349.71 1142.63C1379.64 1142.6 1403.92 1166.85 1403.92 1196.78L1403.92 1626.99C1403.92 1629.3 1402.99 1631.51 1401.33 1633.12L1346.24 1686.82C1344.59 1688.43 1343.66 1690.64 1343.66 1692.95L1343.63 1756.99C1343.63 1759.2 1344.48 1761.32 1346.01 1762.92L1366.31 1784.04C1367.84 1785.64 1368.69 1787.76 1368.69 1789.97L1368.69 1862.3C1368.69 1864.57 1367.8 1866.74 1366.2 1868.34L1261.46 1973.36C1259.85 1974.96 1257.67 1975.87 1255.4 1975.87L1098.52 1975.87C1096.29 1975.87 1094.14 1974.99 1092.54 1973.42L1055.33 1936.96C1053.73 1935.39 1051.58 1934.51 1049.34 1934.51L652.587 1934.51C650.323 1934.51 648.151 1933.62 646.547 1932.02L588.242 1873.89C586.615 1872.27 584.403 1871.37 582.106 1871.39L455.968 1872.82C453.577 1872.85 451.307 1873.87 449.707 1875.65L433.092 1894.11C431.413 1895.97 429 1897.01 426.492 1896.94L416.857 1896.66C414.697 1896.6 412.64 1895.73 411.1 1894.21L411.1 1894.21C409.504 1892.64 407.355 1891.76 405.115 1891.75L197.931 1891.41C195.676 1891.41 193.513 1890.51 191.913 1888.92L147.173 1844.43C145.567 1842.83 144.66 1840.66 144.651 1838.4L142.286 1198.28C142.176 1168.32 166.415 1143.96 196.375 1143.93L1349.71 1142.63Z" fill="#dddddd" fill-rule="nonzero" opacity="1" stroke="none" />
<path d="M146.604 1866.18C146.612 1864.31 148.915 1863.42 150.181 1864.8L177.792 1894.93C178.179 1895.35 178.725 1895.6 179.299 1895.6L406.967 1896.91C407.509 1896.91 408.028 1897.13 408.411 1897.51L411.84 1900.94C412.234 1901.33 412.771 1901.55 413.328 1901.54L430.858 1901.27C431.414 1901.26 431.944 1901.03 432.325 1900.62L454.377 1877.21C454.767 1876.79 455.309 1876.56 455.877 1876.56L571.425 1876.56C571.981 1876.56 572.513 1876.78 572.901 1877.18L632.015 1937.93C632.4 1938.32 632.928 1938.55 633.481 1938.55L1047.51 1940.48C1048.04 1940.48 1048.55 1940.69 1048.93 1941.05L1092.94 1983.18C1093.33 1983.55 1093.84 1983.76 1094.37 1983.76L1259.44 1983.4C1259.98 1983.39 1260.49 1983.19 1260.87 1982.82L1378.89 1868.45C1379.3 1868.06 1379.52 1867.52 1379.52 1866.96L1379.2 1793.51C1379.19 1791.81 1381.13 1790.83 1382.49 1791.85L1382.49 1791.85C1383.01 1792.24 1383.32 1792.85 1383.32 1793.5L1383.32 1875.69C1383.32 1876.25 1383.1 1876.78 1382.7 1877.16L1263.76 1993.92C1263.37 1994.3 1262.86 1994.51 1262.32 1994.51L671.421 1994.51C670.88 1994.51 670.36 1994.3 669.975 1993.92L645.084 1969.36C644.699 1968.98 644.179 1968.76 643.637 1968.76L408.727 1968.76C408.145 1968.76 407.59 1969.01 407.199 1969.44L385.158 1993.84C384.768 1994.27 384.212 1994.51 383.63 1994.51L192.722 1994.51C192.182 1994.51 191.665 1994.3 191.28 1993.93L146.868 1950.38C146.471 1949.99 146.249 1949.45 146.251 1948.9L146.604 1866.18Z" fill="#dddddd" fill-rule="nonzero" opacity="1" stroke="none" />
<path d="M1295.25 1993.45C1295.65 1993.45 1296.04 1993.29 1296.34 1993.01L1401.24 1891.94C1401.54 1891.64 1401.72 1891.24 1401.72 1890.81L1402.96 1635.24C1402.97 1633.82 1401.25 1633.12 1400.27 1634.13L1389.04 1645.67C1388.36 1646.36 1388.47 1647.49 1389.25 1648.05L1394.61 1651.84C1395.02 1652.13 1395.27 1652.6 1395.27 1653.11L1395.67 1698.8C1395.68 1699.27 1395.89 1699.71 1396.26 1700L1398.32 1701.67C1398.69 1701.97 1398.91 1702.43 1398.9 1702.91L1397.69 1797.44C1397.69 1797.85 1397.84 1798.24 1398.11 1798.53L1399.13 1799.62C1399.41 1799.92 1399.56 1800.3 1399.56 1800.7L1399.23 1889.63C1399.23 1890.06 1399.05 1890.46 1398.74 1890.76L1294.16 1990.75C1293.14 1991.72 1293.83 1993.45 1295.25 1993.45L1295.25 1993.45Z" fill="#dddddd" fill-rule="nonzero" opacity="1" stroke="none" />
<path d="M1402 1633.76C1401.45 1633.53 1400.76 1633.65 1400.26 1634.15L1389.04 1645.67C1388.37 1646.36 1388.47 1647.49 1389.26 1648.05L1394.6 1651.81C1395.01 1652.1 1395.26 1652.57 1395.26 1653.08L1395.67 1699.51C1395.67 1699.51 1401.66 1704.43 1402.59 1704.44L1402.94 1635.24C1402.94 1634.54 1402.55 1633.98 1402 1633.76ZM1398.73 1890.72C1398.72 1890.73 1398.74 1890.76 1398.73 1890.77L1294.18 1990.76C1293.16 1991.74 1293.86 1993.43 1295.27 1993.43C1295.68 1993.43 1296.07 1993.27 1296.36 1992.99L1401.25 1891.96C1401.39 1891.83 1401.37 1891.62 1401.45 1891.46C1400.5 1891.35 1399.64 1890.99 1398.73 1890.72Z" fill="#caa055" fill-rule="nonzero" opacity="1" stroke="none" />
<path d="M1403.34 1610.75L1273.97 1742.63L1194.62 1740.97C1194.39 1740.96 1194.15 1741.07 1194 1741.25L1152.09 1789.28C1150.62 1790.97 1148.49 1791.94 1146.25 1791.94L1019.12 1791.94C1018.91 1791.94 1018.71 1792 1018.56 1792.16L948.625 1863.44L780.469 1862.22L780.469 1863.81L948.938 1865.03C949.152 1865.03 949.35 1864.93 949.5 1864.78L1019.47 1793.5L1146.25 1793.5C1148.95 1793.5 1151.51 1792.35 1153.28 1790.31L1194.97 1742.56L1274.28 1744.22C1274.5 1744.22 1274.72 1744.12 1274.88 1743.97L1404.47 1611.88L1403.34 1610.75Z" fill="#000000" fill-rule="nonzero" opacity="1" stroke="none" />
<g opacity="1">
<path d="M1347.33 1514.04C1346.39 1514 1345.47 1514.36 1344.73 1515.05L1293.94 1562.14C1292.46 1563.52 1292.35 1565.87 1293.73 1567.36C1295.11 1568.84 1297.46 1568.95 1298.94 1567.57L1349.72 1520.41C1351.21 1519.04 1351.25 1516.76 1349.87 1515.27C1349.18 1514.53 1348.27 1514.07 1347.33 1514.04Z" fill="#caa055" fill-rule="nonzero" opacity="1" stroke="none" />
<path d="M1347.33 1485.72C1346.39 1485.68 1345.47 1485.97 1344.73 1486.66L1293.94 1533.82C1292.46 1535.2 1292.35 1537.47 1293.73 1538.96C1295.11 1540.45 1297.46 1540.56 1298.94 1539.18L1349.72 1492.02C1351.21 1490.64 1351.25 1488.36 1349.87 1486.87C1349.18 1486.13 1348.27 1485.75 1347.33 1485.72Z" fill="#caa055" fill-rule="nonzero" opacity="1" stroke="none" />
<path d="M1347.33 1457.32C1346.39 1457.28 1345.47 1457.57 1344.73 1458.26L1293.94 1505.42C1292.46 1506.8 1292.35 1509.08 1293.73 1510.56C1295.11 1512.05 1297.46 1512.16 1298.94 1510.78L1349.72 1463.69C1351.21 1462.31 1351.25 1459.96 1349.87 1458.48C1349.18 1457.73 1348.27 1457.35 1347.33 1457.32Z" fill="#caa055" fill-rule="nonzero" opacity="1" stroke="none" />
<path d="M1347.33 1428.92C1346.39 1428.89 1345.47 1429.17 1344.73 1429.86L1293.94 1477.02C1292.46 1478.4 1292.35 1480.75 1293.73 1482.24C1295.11 1483.72 1297.46 1483.76 1298.94 1482.38L1349.72 1435.3C1351.21 1433.92 1351.25 1431.57 1349.87 1430.08C1349.18 1429.34 1348.27 1428.96 1347.33 1428.92Z" fill="#caa055" fill-rule="nonzero" opacity="1" stroke="none" />
<path d="M1347.33 1400.52C1346.39 1400.49 1345.47 1400.85 1344.73 1401.54L1293.94 1448.63C1292.46 1450 1292.35 1452.35 1293.73 1453.84C1295.11 1455.33 1297.46 1455.37 1298.94 1453.99L1349.72 1406.9C1351.21 1405.52 1351.25 1403.17 1349.87 1401.68C1349.18 1400.94 1348.27 1400.56 1347.33 1400.52Z" fill="#caa055" fill-rule="nonzero" opacity="1" stroke="none" />
<path d="M1347.33 1372.13C1346.39 1372.09 1345.47 1372.45 1344.73 1373.14L1293.94 1420.23C1292.46 1421.61 1292.35 1423.96 1293.73 1425.44C1295.11 1426.93 1297.46 1427.04 1298.94 1425.66L1349.72 1378.5C1351.21 1377.12 1351.25 1374.77 1349.87 1373.29C1349.18 1372.54 1348.27 1372.16 1347.33 1372.13Z" fill="#caa055" fill-rule="nonzero" opacity="1" stroke="none" />
<path d="M1347.33 1343.73C1346.39 1343.7 1345.47 1344.06 1344.73 1344.75L1293.94 1391.83C1292.46 1393.21 1292.35 1395.56 1293.73 1397.05C1295.11 1398.53 1297.46 1398.64 1298.94 1397.26L1349.72 1350.11C1351.21 1348.73 1351.25 1346.45 1349.87 1344.96C1349.18 1344.22 1348.27 1343.77 1347.33 1343.73Z" fill="#caa055" fill-rule="nonzero" opacity="1" stroke="none" />
<path d="M1347.33 1315.41C1346.39 1315.37 1345.47 1315.66 1344.73 1316.35L1293.94 1363.51C1292.46 1364.89 1292.35 1367.16 1293.73 1368.65C1295.11 1370.14 1297.46 1370.25 1298.94 1368.87L1349.72 1321.71C1351.21 1320.33 1351.25 1318.05 1349.87 1316.57C1349.18 1315.82 1348.27 1315.44 1347.33 1315.41Z" fill="#caa055" fill-rule="nonzero" opacity="1" stroke="none" />
<path d="M1347.33 1287.01C1346.39 1286.97 1345.47 1287.26 1344.73 1287.95L1293.94 1335.11C1292.46 1336.49 1292.35 1338.77 1293.73 1340.25C1295.11 1341.74 1297.46 1341.85 1298.94 1340.47L1349.72 1293.38C1351.21 1292.01 1351.25 1289.66 1349.87 1288.17C1349.18 1287.43 1348.27 1287.04 1347.33 1287.01Z" fill="#caa055" fill-rule="nonzero" opacity="1" stroke="none" />
<path d="M1347.33 1258.61C1346.39 1258.58 1345.47 1258.86 1344.73 1259.55L1293.94 1306.71C1292.46 1308.09 1292.35 1310.44 1293.73 1311.93C1295.11 1313.42 1297.46 1313.45 1298.94 1312.07L1349.72 1264.99C1351.21 1263.61 1351.25 1261.26 1349.87 1259.77C1349.18 1259.03 1348.27 1258.65 1347.33 1258.61Z" fill="#caa055" fill-rule="nonzero" opacity="1" stroke="none" />
<path d="M1347.33 1230.22C1346.39 1230.18 1345.47 1230.54 1344.73 1231.23L1293.94 1278.32C1292.46 1279.7 1292.35 1282.05 1293.73 1283.53C1295.11 1285.02 1297.46 1285.06 1298.94 1283.68L1349.72 1236.59C1351.21 1235.21 1351.25 1232.86 1349.87 1231.37C1349.18 1230.63 1348.27 1230.25 1347.33 1230.22Z" fill="#caa055" fill-rule="nonzero" opacity="1" stroke="none" />
<path d="M1347.33 1201.82C1346.39 1201.78 1345.47 1202.14 1344.73 1202.83L1293.94 1249.92C1292.46 1251.3 1292.35 1253.65 1293.73 1255.14C1295.11 1256.62 1297.46 1256.73 1298.94 1255.35L1349.72 1208.19C1351.21 1206.81 1351.25 1204.46 1349.87 1202.98C1349.18 1202.23 1348.27 1201.85 1347.33 1201.82Z" fill="#caa055" fill-rule="nonzero" opacity="1" stroke="none" />
</g>
</g>
<g opacity="1" xmlns="http://www.w3.org/2000/svg">
<path d="M253.245 1290.37L253.245 1335.12" fill="none" opacity="1" stroke="#caa055" stroke-linecap="round" stroke-linejoin="round" stroke-width="5.60184" />
<path d="M275.623 1312.74L230.868 1312.74" fill="none" opacity="1" stroke="#caa055" stroke-linecap="round" stroke-linejoin="round" stroke-width="5.60184" />
</g>
<path d="M1020.45 1791.54L1150.84 1791.54L1150.84 1793.76L1020.45 1793.76L1020.45 1791.54Z" fill="#caa055" fill-rule="nonzero" opacity="1" stroke="none" xmlns="http://www.w3.org/2000/svg" />

  </g>
</svg>
